<svg width="223" height="223" viewBox="0 0 223 223" fill="none" xmlns="http://www.w3.org/2000/svg">
<rect width="223" height="223" fill="#1E1E1E"/>
<g clip-path="url(#clip0_0_1)">
<rect width="1728" height="1441" transform="translate(-1268 -1119)" fill="#2D2D2D"/>
<path d="M105.6 14.0573C108.194 16.6329 112.384 16.6179 114.96 14.0239C117.535 11.4299 117.521 7.23925 114.927 4.66363C112.333 2.08802 108.142 2.10285 105.566 4.69685C102.991 7.29085 103.006 11.4817 105.6 14.0573Z" fill="#0171D3"/>
<path d="M126.131 34.443C128.725 37.0186 132.916 37.0038 135.491 34.4098C138.067 31.8158 138.052 27.6249 135.458 25.0493C132.864 22.4737 128.673 22.4887 126.097 25.0827C123.522 27.6767 123.537 31.8674 126.131 34.443Z" fill="#0171D3"/>
<path d="M146.661 54.8281C149.255 57.4037 153.446 57.3887 156.021 54.7947C158.597 52.2007 158.582 48.01 155.988 45.4344C153.394 42.8588 149.203 42.8736 146.628 45.4676C144.052 48.0616 144.067 52.2525 146.661 54.8281Z" fill="#0171D3"/>
<path d="M167.228 75.2487C169.822 77.8243 174.013 77.8095 176.588 75.2155C179.164 72.6215 179.149 68.4306 176.555 65.855C173.961 63.2794 169.77 63.2944 167.194 65.8884C164.619 68.4824 164.634 72.6731 167.228 75.2487Z" fill="#0171D3"/>
<path d="M187.759 95.6347C190.353 98.2103 194.544 98.1953 197.12 95.6013C199.695 93.0073 199.68 88.8166 197.086 86.241C194.492 83.6654 190.301 83.6802 187.726 86.2742C185.15 88.8682 185.165 93.0591 187.759 95.6347Z" fill="#0171D3"/>
<path d="M208.325 116.055C210.919 118.631 215.11 118.616 217.686 116.022C220.261 113.428 220.246 109.237 217.652 106.661C215.058 104.086 210.868 104.101 208.292 106.695C205.716 109.289 205.731 113.479 208.325 116.055Z" fill="#0171D3"/>
<path d="M88.7824 30.9945C91.3764 33.5701 95.5671 33.5551 98.1428 30.9611C100.718 28.3671 100.704 24.1764 98.1096 21.6008C95.5156 19.0252 91.3247 19.04 88.7491 21.634C86.1735 24.228 86.1884 28.4189 88.7824 30.9945Z" fill="#0171D3"/>
<path d="M109.314 51.3802C111.908 53.9558 116.098 53.9409 118.674 51.3469C121.25 48.7529 121.235 44.5621 118.641 41.9865C116.047 39.4108 111.856 39.4259 109.28 42.0198C106.705 44.6138 106.72 48.8045 109.314 51.3802Z" fill="#0171D3"/>
<path d="M129.844 71.7652C132.438 74.3408 136.629 74.3258 139.204 71.7318C141.78 69.1378 141.765 64.9471 139.171 62.3715C136.577 59.7959 132.386 59.8107 129.811 62.4047C127.235 64.9987 127.25 69.1896 129.844 71.7652Z" fill="#0171D3"/>
<path d="M150.411 92.1859C153.005 94.7616 157.195 94.7467 159.771 92.1527C162.347 89.5587 162.332 85.3679 159.738 82.7922C157.144 80.2166 152.953 80.2316 150.377 82.8256C147.802 85.4196 147.817 89.6103 150.411 92.1859Z" fill="#0171D3"/>
<path d="M170.942 112.572C173.536 115.148 177.727 115.133 180.302 112.539C182.878 109.945 182.863 105.754 180.269 103.178C177.675 100.603 173.484 100.618 170.909 103.211C168.333 105.805 168.348 109.996 170.942 112.572Z" fill="#0171D3"/>
<path d="M191.508 132.992C194.102 135.568 198.293 135.553 200.869 132.959C203.444 130.365 203.429 126.174 200.835 123.598C198.241 121.023 194.05 121.038 191.475 123.632C188.899 126.226 188.914 130.416 191.508 132.992Z" fill="#0171D3"/>
<path d="M71.9652 47.9316C74.5592 50.5072 78.7499 50.4922 81.3256 47.8982C83.9012 45.3042 83.8864 41.1135 81.2924 38.5379C78.6984 35.9623 74.5075 35.9771 71.9319 38.5711C69.3563 41.1651 69.3712 45.356 71.9652 47.9316Z" fill="#0171D3"/>
<path d="M92.4964 68.3173C95.0904 70.8929 99.2813 70.8781 101.857 68.2841C104.432 65.6901 104.418 61.4992 101.824 58.9236C99.2295 56.348 95.0388 56.363 92.4632 58.957C89.8876 61.551 89.9024 65.7417 92.4964 68.3173Z" fill="#0171D3"/>
<path d="M113.027 88.7024C115.621 91.278 119.812 91.263 122.387 88.669C124.963 86.075 124.948 81.8843 122.354 79.3087C119.76 76.733 115.569 76.7479 112.994 79.3419C110.418 81.9359 110.433 86.1267 113.027 88.7024Z" fill="#0171D3"/>
<path d="M133.593 109.123C136.187 111.699 140.378 111.684 142.954 109.09C145.529 106.496 145.514 102.305 142.92 99.7294C140.327 97.1538 136.136 97.1688 133.56 99.7628C130.985 102.357 130.999 106.547 133.593 109.123Z" fill="#0171D3"/>
<path d="M154.125 129.509C156.719 132.085 160.91 132.07 163.485 129.476C166.061 126.882 166.046 122.691 163.452 120.115C160.858 117.54 156.667 117.555 154.092 120.149C151.516 122.743 151.531 126.933 154.125 129.509Z" fill="#0171D3"/>
<path d="M174.691 149.929C177.285 152.505 181.476 152.49 184.051 149.896C186.627 147.302 186.612 143.111 184.018 140.536C181.424 137.96 177.233 137.975 174.658 140.569C172.082 143.163 172.097 147.354 174.691 149.929Z" fill="#0171D3"/>
<path d="M55.1482 64.8687C57.7422 67.4443 61.9329 67.4293 64.5085 64.8353C67.0842 62.2413 67.0694 58.0507 64.4754 55.475C61.8814 52.8994 57.6905 52.9143 55.1149 55.5082C52.5393 58.1022 52.5542 62.2931 55.1482 64.8687Z" fill="#0171D3"/>
<path d="M75.6794 85.2544C78.2734 87.83 82.4643 87.8152 85.0399 85.2212C87.6155 82.6272 87.6006 78.4363 85.0066 75.8607C82.4126 73.2851 78.2219 73.3001 75.6462 75.8941C73.0706 78.4881 73.0854 82.6788 75.6794 85.2544Z" fill="#0171D3"/>
<path d="M96.2099 105.639C98.8039 108.215 102.995 108.2 105.57 105.606C108.146 103.012 108.131 98.8214 105.537 96.2458C102.943 93.6702 98.7522 93.685 96.1766 96.279C93.601 98.873 93.6159 103.064 96.2099 105.639Z" fill="#0171D3"/>
<path d="M116.776 126.06C119.37 128.636 123.561 128.621 126.137 126.027C128.712 123.433 128.697 119.242 126.103 116.666C123.509 114.091 119.319 114.106 116.743 116.7C114.168 119.294 114.182 123.484 116.776 126.06Z" fill="#0171D3"/>
<path d="M137.308 146.446C139.902 149.022 144.093 149.007 146.668 146.413C149.244 143.819 149.229 139.628 146.635 137.052C144.041 134.477 139.85 134.492 137.275 137.086C134.699 139.68 134.714 143.871 137.308 146.446Z" fill="#0171D3"/>
<path d="M157.874 166.866C160.468 169.442 164.659 169.427 167.234 166.833C169.81 164.239 169.795 160.048 167.201 157.473C164.607 154.897 160.416 154.912 157.841 157.506C155.265 160.1 155.28 164.291 157.874 166.866Z" fill="#0171D3"/>
<path d="M38.3311 81.8059C40.9251 84.3815 45.1158 84.3665 47.6914 81.7725C50.267 79.1785 50.2522 74.9878 47.6582 72.4122C45.0642 69.8366 40.8733 69.8514 38.2977 72.4454C35.7221 75.0394 35.7371 79.2303 38.3311 81.8059Z" fill="#0171D3"/>
<path d="M58.8623 102.192C61.4563 104.767 65.6472 104.752 68.2228 102.158C70.7984 99.5644 70.7834 95.3735 68.1894 92.7979C65.5954 90.2222 61.4047 90.2373 58.8291 92.8313C56.2535 95.4253 56.2683 99.6159 58.8623 102.192Z" fill="#0171D3"/>
<path d="M79.3928 122.577C81.9868 125.152 86.1775 125.137 88.7531 122.543C91.3287 119.949 91.3139 115.758 88.7199 113.183C86.1259 110.607 81.9351 110.622 79.3594 113.216C76.7838 115.81 76.7988 120.001 79.3928 122.577Z" fill="#0171D3"/>
<path d="M99.9592 142.997C102.553 145.573 106.744 145.558 109.32 142.964C111.895 140.37 111.88 136.179 109.286 133.604C106.692 131.028 102.502 131.043 99.926 133.637C97.3504 136.231 97.3652 140.422 99.9592 142.997Z" fill="#0171D3"/>
<path d="M120.491 163.383C123.085 165.959 127.275 165.944 129.851 163.35C132.427 160.756 132.412 156.565 129.818 153.99C127.224 151.414 123.033 151.429 120.457 154.023C117.882 156.617 117.897 160.808 120.491 163.383Z" fill="#0171D3"/>
<path d="M141.057 183.804C143.651 186.379 147.842 186.364 150.417 183.77C152.993 181.176 152.978 176.985 150.384 174.41C147.79 171.834 143.599 171.849 141.024 174.443C138.448 177.037 138.463 181.228 141.057 183.804Z" fill="#0171D3"/>
<path d="M21.514 98.743C24.108 101.319 28.2987 101.304 30.8743 98.7096C33.4499 96.1156 33.4351 91.9249 30.8411 89.3493C28.2471 86.7737 24.0563 86.7885 21.4807 89.3825C18.905 91.9765 18.92 96.1674 21.514 98.743Z" fill="#0171D3"/>
<path d="M42.0452 119.129C44.6392 121.704 48.8301 121.689 51.4057 119.095C53.9813 116.501 53.9663 112.311 51.3723 109.735C48.7783 107.159 44.5876 107.174 42.012 109.768C39.4364 112.362 39.4512 116.553 42.0452 119.129Z" fill="#0171D3"/>
<path d="M62.5757 139.514C65.1697 142.089 69.3604 142.074 71.936 139.48C74.5116 136.886 74.4968 132.696 71.9029 130.12C69.3089 127.544 65.118 127.559 62.5424 130.153C59.9667 132.747 59.9817 136.938 62.5757 139.514Z" fill="#0171D3"/>
<path d="M83.1421 159.934C85.7361 162.51 89.927 162.495 92.5026 159.901C95.0782 157.307 95.0633 153.116 92.4693 150.541C89.8753 147.965 85.6846 147.98 83.109 150.574C80.5333 153.168 80.5481 157.359 83.1421 159.934Z" fill="#0171D3"/>
<path d="M103.674 180.32C106.268 182.896 110.458 182.881 113.034 180.287C115.61 177.693 115.595 173.502 113.001 170.927C110.407 168.351 106.216 168.366 103.64 170.96C101.065 173.554 101.08 177.745 103.674 180.32Z" fill="#0171D3"/>
<path d="M124.24 200.741C126.834 203.316 131.024 203.301 133.6 200.707C136.176 198.113 136.161 193.923 133.567 191.347C130.973 188.771 126.782 188.786 124.206 191.38C121.631 193.974 121.646 198.165 124.24 200.741Z" fill="#0171D3"/>
<path d="M4.69694 115.68C7.29093 118.256 11.4816 118.241 14.0573 115.647C16.6329 113.053 16.6181 108.862 14.0241 106.286C11.4301 103.711 7.23921 103.726 4.66359 106.32C2.08797 108.914 2.10294 113.104 4.69694 115.68Z" fill="#0171D3"/>
<path d="M25.2281 136.066C27.8221 138.641 32.013 138.626 34.5886 136.032C37.1642 133.438 37.1493 129.248 34.5553 126.672C31.9613 124.096 27.7706 124.111 25.195 126.705C22.6193 129.299 22.6341 133.49 25.2281 136.066Z" fill="#0171D3"/>
<path d="M45.7586 156.451C48.3526 159.026 52.5433 159.011 55.119 156.417C57.6946 153.823 57.6798 149.633 55.0858 147.057C52.4918 144.481 48.3009 144.496 45.7253 147.09C43.1497 149.684 43.1646 153.875 45.7586 156.451Z" fill="#0171D3"/>
<path d="M66.3251 176.871C68.9191 179.447 73.1099 179.432 75.6855 176.838C78.2612 174.244 78.2462 170.053 75.6522 167.478C73.0582 164.902 68.8675 164.917 66.2919 167.511C63.7163 170.105 63.7311 174.296 66.3251 176.871Z" fill="#0171D3"/>
<path d="M86.8566 197.257C89.4506 199.833 93.6413 199.818 96.2169 197.224C98.7925 194.63 98.7777 190.439 96.1837 187.864C93.5897 185.288 89.3989 185.303 86.8233 187.897C84.2476 190.491 84.2626 194.682 86.8566 197.257Z" fill="#0171D3"/>
<path d="M107.423 217.678C110.017 220.253 114.207 220.238 116.783 217.644C119.359 215.05 119.344 210.86 116.75 208.284C114.156 205.708 109.965 205.723 107.389 208.317C104.814 210.911 104.829 215.102 107.423 217.678Z" fill="#0171D3"/>
</g>
<defs>
<clipPath id="clip0_0_1">
<rect width="1728" height="1441" fill="white" transform="translate(-1268 -1119)"/>
</clipPath>
</defs>
</svg>
